<svg width="31" height="35" viewBox="0 0 31 35" fill="none" xmlns="http://www.w3.org/2000/svg">
<g clip-path="url(#clip0_26_24)">
<path d="M27.0408 2.15771H3.2449C1.45344 2.15771 0 3.60752 0 5.3945V29.1309C0 30.9179 1.45344 32.3677 3.2449 32.3677H27.0408C28.8323 32.3677 30.2857 30.9179 30.2857 29.1309V5.3945C30.2857 3.60752 28.8323 2.15771 27.0408 2.15771ZM23.7351 12.8661C23.7486 13.0549 23.7486 13.2504 23.7486 13.4393C23.7486 19.2857 19.2869 26.0223 11.1341 26.0223C8.61926 26.0223 6.28699 25.294 4.32653 24.0397C4.68482 24.0802 5.02959 24.0937 5.39464 24.0937C7.47003 24.0937 9.3764 23.3924 10.8974 22.2056C8.95051 22.1651 7.31454 20.8906 6.75344 19.1374C7.43622 19.2385 8.0514 19.2385 8.75446 19.0564C6.7264 18.6451 5.20536 16.8649 5.20536 14.7137V14.6598C5.79349 14.9902 6.48304 15.1925 7.20638 15.2195C6.59825 14.816 6.09972 14.2686 5.75528 13.6262C5.41084 12.9837 5.2312 12.2662 5.2324 11.5377C5.2324 10.715 5.44872 9.95972 5.83406 9.30562C8.0176 11.9895 11.2963 13.7427 14.9739 13.9315C14.3452 10.9308 16.5963 8.49642 19.3004 8.49642C20.5781 8.49642 21.7273 9.02914 22.5385 9.89228C23.539 9.70347 24.499 9.33259 25.3508 8.82684C25.0195 9.85182 24.3232 10.715 23.4038 11.2612C24.2962 11.1668 25.1615 10.9173 25.9592 10.5734C25.3575 11.4567 24.6004 12.239 23.7351 12.8661Z" fill="white"/>
</g>
<defs>
<clipPath id="clip0_26_24">
<rect width="30.2857" height="34.5257" fill="white"/>
</clipPath>
</defs>
</svg>
